<svg xmlns="http://www.w3.org/2000/svg" width="360" height="360" viewBox="0 0 360 360">
  <filter id="grain">
    <feTurbulence type="fractalNoise" baseFrequency="0.72" numOctaves="3" seed="9"/>
    <feColorMatrix type="matrix" values="0.35 0 0 0 0.62  0 0.3 0 0 0.52  0 0 0.22 0 0.34  0 0 0 0.18 0"/>
  </filter>
  <rect width="360" height="360" fill="#efe4c3"/>
  <rect width="360" height="360" filter="url(#grain)" opacity="0.55"/>
  <path d="M0 58c45 10 86 5 129-9 49-16 92-13 138 9 35 17 63 20 93 8v27c-38 12-70 7-108-11-39-18-78-21-121-8-49 15-89 18-131 7z" fill="#8a6e3a" opacity="0.06"/>
  <path d="M0 244c56-12 101-9 148 8 41 15 81 17 125 0 31-12 58-16 87-11v34c-33-8-61-4-95 9-41 15-83 13-124-1-46-16-92-18-141-5z" fill="#314f43" opacity="0.05"/>
</svg>
